# xmcd
#
# Track frame offsets: 
#        150
#        18839
#        39440
#        59952
#        83462
#        110218
#        136851
#        160006
#        183462
#        185443
#        212723
#        233901
#        246953
#        272937
#        298706
#
# Disc length: 4298 seconds
#
# Revision: 0
# Processed by: cddbd v1.5.2PL0 Copyright (c) Steve Scherf et al.
# Submitted via: ExactAudioCopyFreeDBPlugin 1.0
#
DISCID=da10c80f
DTITLE=Mtume - 1984 - You, Me And He
DYEAR=1984
DGENRE=R&B
TTITLE0=C.O.D. (I'll Deliver)
TTITLE1=You Are My Sunshine
TTITLE2=You, Me and He
TTITLE3=I Simply Like
TTITLE4=Prime Time
TTITLE5=Tie Me Up
TTITLE6=Sweet For You and Me (Monogamy Mix)
TTITLE7=To Be Or Not Bop That Is The Question
TTITLE8=X
TTITLE9=You Me and He (Polygamy Mix)
TTITLE10=You Me and He (Instrumental Mix)
TTITLE11=I Simply Like (Dub Version)
TTITLE12=I Simply Like (Extended Version)
TTITLE13=C.O.D. (I'll Deliver) (Instrumental)
TTITLE14=C.O.D. (Vocal)
EXTD=
EXTT0=
EXTT1=
EXTT2=
EXTT3=
EXTT4=
EXTT5=
EXTT6=
EXTT7=
EXTT8=
EXTT9=
EXTT10=
EXTT11=
EXTT12=
EXTT13=
EXTT14=
PLAYORDER=
